<svg xmlns="http://www.w3.org/2000/svg" viewBox="0 0 32 32">
    <title>Tournament</title>
    <path fill="#9933ff" style="fill: var(--color5, #9933ff)" d="M28.869 4.225h-5.039l0.084-1.134h0.338c0.578 0 1.049-0.472 1.049-1.052v-0.986c0-0.58-0.47-1.052-1.049-1.052h-12.54c-0.258 0-0.467 0.21-0.467 0.469s0.209 0.469 0.467 0.469h12.54c0.063 0 0.114 0.052 0.114 0.115v0.986c0 0.063-0.114 0.115-0.114 0.115h-16.504c-0.063 0-0.114-0.052-0.114-0.115v-0.985c0-0.063 0.051-0.115 0.114-0.115h1.774c0.258 0 0.467-0.21 0.467-0.469s-0.209-0.469-0.467-0.469h-1.774c-0.578 0-1.049 0.472-1.049 1.052v0.986c0 0.58 0.47 1.052 1.049 1.052h0.338l0.084 1.134h-5.039c-0.844 0-1.531 0.689-1.531 1.537v0.734c0 2.322 0.7 3.979 1.564 5.432 1.991 3.344 5.653 4.517 7.824 5.657 0.297 0.156 0.318 0.718-0.169 0.718h-0.524c-0.258 0-0.467 0.21-0.467 0.469s0.209 0.469 0.467 0.469h0.524c0.469 0 0.88-0.249 1.112-0.621 0.308 0.315 0.636 0.614 0.982 0.894-0.116 0.199-0.66 1.82 0.896 2.278-0.168 0.441-0.369 0.742-1.245 1.188-1.394 0.708-1.247 2.139-1.247 2.139h-1.087c-1.137 0-2.061 0.928-2.061 2.069v1.87h-0.794c-0.358 0-0.649 0.292-0.649 0.651v1.641c0 0.359 0.291 0.651 0.649 0.651h17.252c0.358 0 0.649-0.292 0.649-0.651v-1.641c0-0.359-0.291-0.651-0.649-0.651h-0.794v-1.87c0-1.141-0.925-2.069-2.061-2.069h-1.087c0 0 0.050-1.518-1.247-2.139-0.742-0.356-1.078-0.747-1.245-1.188 1.542-0.418 1.012-2.079 0.896-2.278 0.345-0.279 0.673-0.579 0.981-0.895 0.232 0.372 0.643 0.621 1.112 0.621h0.524c0.258 0 0.467-0.21 0.467-0.469s-0.209-0.469-0.467-0.469h-0.524c-0.434-0.045-0.459-0.504-0.169-0.718 1.157-0.856 5.797-2.047 7.824-5.658 0.796-1.419 1.564-3.252 1.564-5.431v-0.735c0-0.847-0.687-1.537-1.531-1.537zM7.697 14.883c-1.553-0.78-2.855-1.975-3.768-3.458s-1.395-2.545-1.395-5.664c0-0.268 0.268-0.599 0.597-0.599h5.108l0.463 6.297c0.12 1.635 0.586 3.2 1.346 4.605l-2.351-1.181zM24.34 29.994v1.068h-16.681v-1.068h16.681zM21.77 26.055c0.621 0 1.127 0.508 1.127 1.131v1.87h-13.795v-1.87c0-0.624 0.503-1.131 1.127-1.131s11.54 0 11.54 0zM18.503 23.548c1.39 0.532 1.246 1.57 1.246 1.57h-7.499c0 0-0.096-1.003 1.053-1.463 0.67-0.268 1.274-1.044 1.476-1.837h2.44c0.203 0.793 0.796 1.543 1.284 1.73zM17.931 20.88h-3.862c-0.589 0-0.518-1.097 0-1.097h3.862c0.549 0 0.531 1.097 0 1.097zM28.071 11.425c-1.724 3.028-6.151 4.639-6.151 4.639s0.8-1.344 1.066-2.664c0.063-0.251-0.089-0.506-0.339-0.569s-0.504 0.089-0.567 0.34c-0.907 3.824-3.738 5.739-3.738 5.739h-4.684c0 0-3.56-2.377-4.024-7.521l-0.611-8.3h13.954l-0.588 7.989c-0.019 0.258 0.174 0.483 0.431 0.502 0.259 0.020 0.481-0.175 0.5-0.433l0.441-5.987h5.108c0.329 0 0.597 0.268 0.597 0.599 0 0 0.256 2.764-1.395 5.664z"></path>
    <path fill="#9933ff" style="fill: var(--color5, #9933ff)" d="M20.414 7.597l-2.858-0.096-0.974-2.699c-0.192-0.589-0.971-0.539-1.166 0l-0.974 2.699-2.858 0.096c-0.563 0.030-0.827 0.748-0.36 1.113l2.256 1.763c0 0-0.637 2.156-0.793 2.757s0.489 0.996 0.943 0.688l2.368-1.609 2.368 1.609c0.423 0.287 1.115-0.089 0.943-0.688l-0.793-2.757 2.256-1.763c0.434-0.354 0.269-1.092-0.36-1.113zM17.537 10.142l0.636 2.511-2.173-1.379-2.173 1.379 0.631-2.511-1.973-1.637 2.551-0.155 0.965-2.408 0.968 2.408 2.548 0.155-1.979 1.637z"></path>
</svg>
